<?xml version="1.0" encoding="UTF-8"?>
<!-- Generator: Adobe Illustrator 19.0.0, SVG Export Plug-In . SVG Version: 6.00 Build 0)  -->
<svg enable-background="new 0 0 512 512" version="1.1" viewBox="0 0 512 512" xml:space="preserve" xmlns="http://www.w3.org/2000/svg">
<rect y="85.333" width="512" height="341.34" fill="#F0F0F0"/>
<polygon points="288 85.33 224 85.33 224 224 0 224 0 288 224 288 224 426.66 288 426.66 288 288 512 288 512 224 288 224" fill="#D80027"/>
<g fill="#0052B4">
	<polygon points="393.78 315.36 512 381.03 512 315.36"/>
	<polygon points="311.65 315.36 512 426.66 512 395.19 368.31 315.36"/>
	<polygon points="458.63 426.66 311.65 345 311.65 426.66"/>
</g>
<polygon points="311.65 315.36 512 426.66 512 395.19 368.31 315.36" fill="#F0F0F0"/>
<polygon points="311.65 315.36 512 426.66 512 395.19 368.31 315.36" fill="#D80027"/>
<g fill="#0052B4">
	<polygon points="90.341 315.36 0 365.55 0 315.36"/>
	<polygon points="200.35 329.51 200.35 426.66 25.491 426.66"/>
</g>
<polygon points="143.69 315.36 0 395.19 0 426.66 0 426.66 200.35 315.36" fill="#D80027"/>
<g fill="#0052B4">
	<polygon points="118.22 196.63 0 130.96 0 196.63"/>
	<polygon points="200.35 196.63 0 85.33 0 116.8 143.69 196.63"/>
	<polygon points="53.366 85.33 200.35 166.99 200.35 85.33"/>
</g>
<polygon points="200.35 196.63 0 85.33 0 116.8 143.69 196.63" fill="#F0F0F0"/>
<polygon points="200.35 196.63 0 85.33 0 116.8 143.69 196.63" fill="#D80027"/>
<g fill="#0052B4">
	<polygon points="421.66 196.64 512 146.45 512 196.64"/>
	<polygon points="311.65 182.48 311.65 85.331 486.51 85.331"/>
</g>
<polygon points="368.31 196.63 512 116.8 512 85.33 512 85.33 311.65 196.63" fill="#D80027"/>















</svg>
