<svg width="512" height="512" viewBox="0 0 135.47 135.47" xmlns="http://www.w3.org/2000/svg" xmlns:xlink="http://www.w3.org/1999/xlink"><defs fill="#fff"><path id="h" d="M-31.5 0h33a30 30 0 0 0 30-30v-10a30 30 0 0 0-30-30h-33zm13-13h19a19 19 0 0 0 19-19v-6a19 19 0 0 0-19-19h-19z" fill-rule="evenodd"/><path id="i" transform="translate(-31.5)" d="M0 0h63v-13H12v-18h40v-12H12v-14h48v-13H0z"/><path id="k" d="M-26.25 0h52.5v-12h-40.5v-16h33v-12h-33v-11H25v-12h-51.25z"/><path id="j" d="M-31.5 0h12v-48l14 48h11l14-48V0h12v-70H14L0-22l-14-48h-17.5z"/><path id="c" d="M0 0a31.5 35 0 0 0 0-70A31.5 35 0 0 0 0 0m0-13a18.5 22 0 0 0 0-44 18.5 22 0 0 0 0 44" fill-rule="evenodd"/><path id="d" d="M-31.5 0h13v-26h28a22 22 0 0 0 0-44h-40zm13-39h27a9 9 0 0 0 0-18h-27z" fill-rule="evenodd"/><path id="m" d="M-15.75-22C-15.75-15-9-11.5 1-11.5s14.74-3.25 14.75-7.75c0-14.25-46.75-5.25-46.5-30.25C-30.5-71-6-70 3-70s26 4 25.75 21.25H13.5c0-7.5-7-10.25-15-10.25-7.75 0-13.25 1.25-13.25 8.5-.25 11.75 46.25 4 46.25 28.75C31.5-3.5 13.5 0 0 0c-11.5 0-31.55-4.5-31.5-22z"/><use id="n" transform="scale(31.5)" xlink:href="#a"/><use id="o" transform="scale(26.25)" xlink:href="#a"/><use id="q" transform="scale(21)" xlink:href="#a"/><use id="p" transform="scale(15)" xlink:href="#a"/><use id="r" transform="scale(10.5)" xlink:href="#a"/><g id="l"><clipPath id="b"><path d="M-31.5 0v-70h63V0zM0-47v12h31.5v-12z"/></clipPath><use clip-path="url(#b)" xlink:href="#c"/><path d="M5-35h26.5v10H5z"/><path d="M21.5-35h10V0h-10z"/></g><g id="g"><use xlink:href="#d"/><path d="M28 0c0-10 0-32-15-32H-6c22 0 22 22 22 32"/></g><g id="a" fill="#fff"><g id="f"><path id="e" transform="rotate(18 0 -1)" d="M0-1v1h.5"/><use transform="scale(-1 1)" xlink:href="#e"/></g><use transform="rotate(72)" xlink:href="#f"/><use transform="rotate(-72)" xlink:href="#f"/><use transform="rotate(144)" xlink:href="#f"/><use transform="rotate(216)" xlink:href="#f"/></g></defs><path fill="#009b3a" d="M0 20.32h135.47v94.827H0z"/><path d="M22.339 67.733 67.733 96.72l45.394-28.986-45.394-28.986z" fill="#fedf00"/><path d="M86.616 70.366a46.487 46.487 0 0 0-.33-.285 46.487 46.487 0 0 0-1.798-1.404 46.487 46.487 0 0 0-1.866-1.313 46.487 46.487 0 0 0-1.927-1.221 46.487 46.487 0 0 0-1.986-1.125 46.487 46.487 0 0 0-2.038-1.026 46.487 46.487 0 0 0-2.086-.924 46.487 46.487 0 0 0-2.129-.822 46.487 46.487 0 0 0-2.166-.715 46.487 46.487 0 0 0-2.2-.609 46.487 46.487 0 0 0-2.226-.5 46.487 46.487 0 0 0-2.248-.39 46.487 46.487 0 0 0-2.264-.28 46.487 46.487 0 0 0-2.276-.167 46.487 46.487 0 0 0-2.28-.056 46.487 46.487 0 0 0-2.282.056 46.487 46.487 0 0 0-2.275.168 46.487 46.487 0 0 0-1.97.243 19.142 19.142 0 0 0-.985 2.93 43.753 43.753 0 0 1 .886-.158 43.753 43.753 0 0 1 2.199-.28 43.753 43.753 0 0 1 2.21-.168 43.753 43.753 0 0 1 2.216-.056 43.753 43.753 0 0 1 2.216.056 43.753 43.753 0 0 1 2.21.168 43.753 43.753 0 0 1 2.2.28 43.753 43.753 0 0 1 2.182.391 43.753 43.753 0 0 1 2.159.501 43.753 43.753 0 0 1 2.131.61 43.753 43.753 0 0 1 2.098.717 43.753 43.753 0 0 1 2.058.822 43.753 43.753 0 0 1 2.015.926 43.753 43.753 0 0 1 1.965 1.026 43.753 43.753 0 0 1 1.91 1.125 43.753 43.753 0 0 1 1.851 1.22 43.753 43.753 0 0 1 1.787 1.312 43.753 43.753 0 0 1 1.718 1.4 43.753 43.753 0 0 1 .63.57 19.142 19.142 0 0 0 .691-3.023z" fill="#fff"/><g fill="#002776"><path d="M85.924 73.39a43.752 43.752 0 0 0-.63-.57 43.752 43.752 0 0 0-1.718-1.4 43.752 43.752 0 0 0-1.787-1.313 43.752 43.752 0 0 0-1.85-1.22 43.752 43.752 0 0 0-1.91-1.124 43.752 43.752 0 0 0-1.966-1.027 43.752 43.752 0 0 0-2.014-.925 43.752 43.752 0 0 0-2.058-.822 43.752 43.752 0 0 0-2.098-.717 43.752 43.752 0 0 0-2.131-.61 43.752 43.752 0 0 0-2.16-.501 43.752 43.752 0 0 0-2.182-.391 43.752 43.752 0 0 0-2.199-.28 43.752 43.752 0 0 0-2.21-.169 43.752 43.752 0 0 0-2.216-.056 43.752 43.752 0 0 0-2.216.056 43.752 43.752 0 0 0-2.21.169 43.752 43.752 0 0 0-2.2.28 43.752 43.752 0 0 0-.885.158 19.142 19.142 0 0 0-.693 4.806 19.142 19.142 0 0 0 19.142 19.142 19.142 19.142 0 0 0 18.191-13.487z"/><path d="M67.733 48.591a19.142 19.142 0 0 0-17.465 11.405 46.487 46.487 0 0 1 1.97-.243 46.487 46.487 0 0 1 2.276-.168 46.487 46.487 0 0 1 2.281-.056 46.487 46.487 0 0 1 2.281.056 46.487 46.487 0 0 1 2.275.168 46.487 46.487 0 0 1 2.265.28 46.487 46.487 0 0 1 2.248.39 46.487 46.487 0 0 1 2.226.5 46.487 46.487 0 0 1 2.2.608 46.487 46.487 0 0 1 2.166.716 46.487 46.487 0 0 1 2.129.82 46.487 46.487 0 0 1 2.086.926 46.487 46.487 0 0 1 2.038 1.025 46.487 46.487 0 0 1 1.985 1.125 46.487 46.487 0 0 1 1.928 1.22 46.487 46.487 0 0 1 1.865 1.315 46.487 46.487 0 0 1 1.799 1.403 46.487 46.487 0 0 1 .33.285 19.142 19.142 0 0 0 .259-2.633 19.142 19.142 0 0 0-19.142-19.142z"/></g><g transform="matrix(.02604 0 0 .02604 56.75 106.048)" fill="#009b3a"><use transform="rotate(-7)" y="-1697.5" width="100%" height="100%" xlink:href="#c"/><use transform="rotate(-4)" y="-1697.5" width="100%" height="100%" xlink:href="#g"/><use transform="rotate(-1)" y="-1697.5" width="100%" height="100%" xlink:href="#h"/><use transform="rotate(2)" y="-1697.5" width="100%" height="100%" xlink:href="#i"/><use transform="rotate(5)" y="-1697.5" width="100%" height="100%" xlink:href="#j"/><use transform="rotate(9.75)" y="-1697.5" width="100%" height="100%" xlink:href="#k"/><use transform="rotate(14.5)" y="-1697.5" width="100%" height="100%" xlink:href="#d"/><use transform="rotate(17.5)" y="-1697.5" width="100%" height="100%" xlink:href="#g"/><use transform="rotate(20.5)" y="-1697.5" width="100%" height="100%" xlink:href="#c"/><use transform="rotate(23.5)" y="-1697.5" width="100%" height="100%" xlink:href="#l"/><use transform="rotate(26.5)" y="-1697.5" width="100%" height="100%" xlink:href="#g"/><use transform="rotate(29.5)" y="-1697.5" width="100%" height="100%" xlink:href="#i"/><use transform="rotate(32.5)" y="-1697.5" width="100%" height="100%" xlink:href="#m"/><use transform="rotate(35.5)" y="-1697.5" width="100%" height="100%" xlink:href="#m"/><use transform="rotate(38.5)" y="-1697.5" width="100%" height="100%" xlink:href="#c"/></g><g transform="matrix(.02604 0 0 .02604 67.606 67.7)"><use x="-600" y="-132" width="100%" height="100%" xlink:href="#n"/><use x="-535" y="177" width="100%" height="100%" xlink:href="#n"/><use x="-625" y="243" width="100%" height="100%" xlink:href="#o"/><use x="-463" y="132" width="100%" height="100%" xlink:href="#p"/><use x="-382" y="250" width="100%" height="100%" xlink:href="#o"/><use x="-404" y="323" width="100%" height="100%" xlink:href="#q"/><use x="228" y="-228" width="100%" height="100%" xlink:href="#n"/><use x="515" y="258" width="100%" height="100%" xlink:href="#n"/><use x="617" y="265" width="100%" height="100%" xlink:href="#q"/><use x="545" y="323" width="100%" height="100%" xlink:href="#o"/><use x="368" y="477" width="100%" height="100%" xlink:href="#o"/><use x="367" y="551" width="100%" height="100%" xlink:href="#q"/><use x="441" y="419" width="100%" height="100%" xlink:href="#q"/><use x="500" y="382" width="100%" height="100%" xlink:href="#o"/><use x="365" y="405" width="100%" height="100%" xlink:href="#q"/><use x="-280" y="30" width="100%" height="100%" xlink:href="#o"/><use x="200" y="-37" width="100%" height="100%" xlink:href="#q"/><use y="330" width="100%" height="100%" xlink:href="#n"/><use x="85" y="184" width="100%" height="100%" xlink:href="#o"/><use y="118" width="100%" height="100%" xlink:href="#o"/><use x="-74" y="184" width="100%" height="100%" xlink:href="#q"/><use x="-37" y="235" width="100%" height="100%" xlink:href="#p"/><use x="220" y="495" width="100%" height="100%" xlink:href="#o"/><use x="283" y="430" width="100%" height="100%" xlink:href="#q"/><use x="162" y="412" width="100%" height="100%" xlink:href="#q"/><use x="-295" y="390" width="100%" height="100%" xlink:href="#n"/><use y="575" width="100%" height="100%" xlink:href="#r"/></g></svg>