<?xml version="1.0" encoding="utf-8"?>
<svg viewBox="-0.5 -0.5 512 512" xmlns="http://www.w3.org/2000/svg">
  <path style="opacity:.992" fill="#fbdc09" d="M233.5-.5h44c52.247 4.969 98.58 23.969 139 57h-322c40.422-33.033 86.755-52.033 139-57Z"/>
  <path style="opacity:.999" fill="#da1219" d="M94.5 56.5h322c20.167 15.497 37.167 33.83 51 55a22478.12 22478.12 0 0 1-424 0c13.855-21.19 30.855-39.524 51-55Z"/>
  <path style="opacity:.999" fill="#e14214" d="M43.5 111.5a22478.12 22478.12 0 0 0 424 0c.838.342 1.172 1.008 1 2h-426c-.172-.992.162-1.658 1-2Z"/>
  <path style="opacity:.999" fill="#fbdc09" d="M42.5 113.5h426c12.201 16.734 21.535 35.067 28 55a29048.262 29048.262 0 0 1-482 0c6.465-19.933 15.799-38.266 28-55Z"/>
  <path style="opacity:.999" fill="#f3a90d" d="M14.5 168.5a29048.262 29048.262 0 0 0 482 0c.838.342 1.172 1.008 1 2h-484c-.172-.992.162-1.658 1-2Z"/>
  <path style="opacity:.999" fill="#da1719" d="M13.5 170.5h484a256.904 256.904 0 0 1 13 57H.5a256.843 256.843 0 0 1 13-57Z"/>
  <path style="opacity:.999" fill="#fbdc09" d="M.5 227.5h510c-.295 2.235.039 4.235 1 6v44c-.961 1.765-1.295 3.765-1 6H.5c.295-2.235-.039-4.235-1-6v-44c.961-1.765 1.295-3.765 1-6Z"/>
  <path style="opacity:.999" fill="#e24a16" d="M.5 283.5h510v2H.5v-2Z"/>
  <path style="opacity:.999" fill="#da1219" d="M.5 285.5h510a271.757 271.757 0 0 1-13 55h-484a271.822 271.822 0 0 1-13-55Z"/>
  <path style="opacity:1" fill="#f3a90d" d="M13.5 340.5h484c.172.992-.162 1.658-1 2a29048.262 29048.262 0 0 0-482 0c-.838-.342-1.172-1.008-1-2Z"/>
  <path style="opacity:.999" fill="#fbdc09" d="M496.5 342.5c-6.465 19.933-15.799 38.266-28 55h-426c-12.201-16.734-21.535-35.067-28-55a29048.262 29048.262 0 0 1 482 0Z"/>
  <path style="opacity:.999" fill="#e14215" d="M42.5 397.5h426c.172.992-.162 1.658-1 2a22478.12 22478.12 0 0 0-424 0c-.838-.342-1.172-1.008-1-2Z"/>
  <path style="opacity:.998" fill="#da1219" d="M467.5 399.5c-13.855 21.19-30.855 39.524-51 55h-322c-20.167-15.497-37.167-33.83-51-55a22478.12 22478.12 0 0 1 424 0Z"/>
  <path style="opacity:.992" fill="#fbdc09" d="M94.5 454.5h322c-40.422 33.033-86.755 52.033-139 57h-44c-52.247-4.969-98.58-23.969-139-57Z"/>
</svg>