<svg version="1.1" id="Layer_1" xmlns="http://www.w3.org/2000/svg" xmlns:xlink="http://www.w3.org/1999/xlink" x="0px" y="0px"
     width="512" height="512" viewBox="0 0 512 512" style="enable-background:new 0 0 512 512;" xml:space="preserve">
    <path d="M341.33 497.23a256 256 0 0 0 21.014-8.37 256 256 0 0 0 32.059-17.503 256 256 0 0 0 29.24-21.89 256 256 0 0 0 25.828-25.827 256 256 0 0 0 21.889-29.24 256 256 0 0 0 17.504-32.06 256 256 0 0 0 12.766-34.222 256 256 0 0 0 7.764-35.691 256 256 0 0 0 2.605-36.432 256 256 0 0 0-.308-12.561 256 256 0 0 0-.924-12.531 256 256 0 0 0-1.54-12.471 256 256 0 0 0-2.148-12.381 256 256 0 0 0-2.752-12.26 256 256 0 0 0-3.351-12.11 256 256 0 0 0-3.942-11.931 256 256 0 0 0-4.521-11.723 256 256 0 0 0-5.092-11.488 256 256 0 0 0-5.65-11.223 256 256 0 0 0-6.194-10.932 256 256 0 0 0-6.722-10.617 256 256 0 0 0-7.235-10.271 256 256 0 0 0-7.73-9.906 256 256 0 0 0-8.207-9.516 256 256 0 0 0-8.664-9.1 256 256 0 0 0-9.1-8.664 256 256 0 0 0-9.516-8.207 256 256 0 0 0-9.906-7.73 256 256 0 0 0-10.27-7.235 256 256 0 0 0-10.618-6.722 256 256 0 0 0-10.932-6.194 256 256 0 0 0-11.223-5.65 256 256 0 0 0-11.488-5.092 256 256 0 0 0-11.723-4.521 256 256 0 0 0-.912-.301v482.57zM170.67 14.766a256 256 0 0 0-21.012 8.37 256 256 0 0 0-32.059 17.503 256 256 0 0 0-29.24 21.89 256 256 0 0 0-25.828 25.827 256 256 0 0 0-21.889 29.24 256 256 0 0 0-17.504 32.06 256 256 0 0 0-12.766 34.222 256 256 0 0 0-7.764 35.691 256 256 0 0 0-2.605 36.432 256 256 0 0 0 2.605 36.432 256 256 0 0 0 7.764 35.691 256 256 0 0 0 12.766 34.223 256 256 0 0 0 17.504 32.06 256 256 0 0 0 21.889 29.24 256 256 0 0 0 25.828 25.827 256 256 0 0 0 29.24 21.89 256 256 0 0 0 32.059 17.503 256 256 0 0 0 21.012 8.37V14.766z" fill="#d91023"/><path d="M170.67 14.766v482.47a256 256 0 0 0 13.211 4.397 256 256 0 0 0 35.691 7.763 256 256 0 0 0 36.432 2.606 256 256 0 0 0 36.432-2.606 256 256 0 0 0 35.691-7.763 256 256 0 0 0 13.209-4.397V14.666a256 256 0 0 0-11.02-3.64 256 256 0 0 0-12.109-3.352 256 256 0 0 0-12.26-2.752 256 256 0 0 0-12.381-2.149 256 256 0 0 0-12.471-1.539A256 256 0 0 0 268.564.31a256 256 0 0 0-12.561-.308 256 256 0 0 0-36.432 2.605 256 256 0 0 0-35.691 7.764 256 256 0 0 0-13.211 4.397z" fill="#fffffc"/>
</svg>