<?xml version="1.0"?>
<svg xmlns="http://www.w3.org/2000/svg" xmlns:xlink="http://www.w3.org/1999/xlink" height="182px" version="1.1" viewBox="0 0 182 182" width="182px">
  <defs>
    <clipPath id="clip-1">
      <ellipse cx="90" cy="90" id="path-1" rx="90" ry="90"/>
    </clipPath>
  </defs>
  <g clip-path="url(#clip-1)">
    <rect fill="#479951" height="60" width="180" x="0" y="120"/>
    <rect fill="#FFFFFF" height="60" width="180" x="0" y="60"/>
    <rect fill="#CE6F2D" height="60" width="180" x="0" y="0"/>
    <path fill-rule="evenodd" d="M90.8,115.6 C104.496662,115.6 115.6,104.496662 115.6,90.8 C115.6,77.1033375 104.496662,66 90.8,66 C77.1033375,66 66,77.1033375 66,90.8 C66,104.496662 77.1033375,115.6 90.8,115.6 Z M90.8,113.325037 C103.210591,113.325037 113.271362,103.252251 113.271362,90.826838 C113.271362,78.4014249 103.210591,68.3286385 90.8,68.3286385 C78.3894091,68.3286385 68.3286385,78.4014249 68.3286385,90.826838 C68.3286385,103.252251 78.3894091,113.325037 90.8,113.325037 Z M90.4507042,95.1079812 C92.7013295,95.1079812 94.5258216,93.2834891 94.5258216,91.0328638 C94.5258216,88.7822386 92.7013295,86.9577465 90.4507042,86.9577465 C88.2000789,86.9577465 86.3755869,88.7822386 86.3755869,91.0328638 C86.3755869,93.2834891 88.2000789,95.1079812 90.4507042,95.1079812 Z M90.4507042,113.051722 L91.1492958,100.826369 L90.4507042,95.0047732 L89.7521127,100.826369 L90.4507042,113.051722 Z M87.6581791,113.887469 C88.2160218,113.960911 88.7277786,113.568226 88.80122,113.010383 C88.8746614,112.45254 88.4819766,111.940783 87.9241338,111.867342 C87.3662911,111.793901 86.8545343,112.186585 86.7810929,112.744428 C86.7076515,113.302271 87.1003364,113.814028 87.6581791,113.887469 Z M84.7374523,112.299558 L88.5763939,100.671583 L89.4083462,94.8675442 L87.2268186,100.309966 L84.7374523,112.299558 Z M79.413549,110.094325 L86.1312231,99.856155 L88.4370232,94.465209 L84.921227,99.1575635 L79.413549,110.094325 Z M74.8418096,106.586306 L83.9804178,98.4356552 L87.6029292,93.8251862 L82.9924602,97.4476975 L74.8418096,106.586306 Z M71.3337906,102.014566 L82.2705519,96.5068883 L86.9629063,92.9910922 L81.5719603,95.2968923 L71.3337906,102.014566 Z M69.1285577,96.6906631 L81.1181498,94.2012967 L86.5605712,92.0197691 L80.7565322,92.8517215 L69.1285577,96.6906631 Z M68.3763938,90.9774111 L80.6017459,91.6760027 L86.4233421,90.9774111 L80.6017459,90.2788196 L68.3763938,90.9774111 Z M69.1285577,85.2641592 L80.7565322,89.1031007 L86.5605712,89.9350531 L81.1181498,87.7535255 L69.1285577,85.2641592 Z M71.3337906,79.9402559 L81.5719603,86.65793 L86.9629063,88.9637301 L82.2705519,85.4479339 L71.3337906,79.9402559 Z M74.8418096,75.3685165 L82.9924602,84.5071247 L87.6029292,88.1296361 L83.9804178,83.5191671 L74.8418096,75.3685165 Z M79.413549,71.8604975 L84.921227,82.7972588 L88.4370232,87.4896132 L86.1312231,82.0986672 L79.413549,71.8604975 Z M84.7374523,69.6552646 L87.2268186,81.6448567 L89.4083462,87.0872781 L88.5763939,81.2832391 L84.7374523,69.6552646 Z M90.4507042,68.9031007 L89.7521127,81.1284528 L90.4507042,86.950049 L91.1492958,81.1284528 L90.4507042,68.9031007 Z M96.1639562,69.6552646 L92.3250146,81.2832391 L91.4930622,87.0872781 L93.6745898,81.6448567 L96.1639562,69.6552646 Z M101.487859,71.8604975 L94.7701854,82.0986672 L92.4643853,87.4896132 L95.9801814,82.7972588 L101.487859,71.8604975 Z M106.059599,75.3685165 L96.9209906,83.5191671 L93.2984793,88.1296361 L97.9089483,84.5071247 L106.059599,75.3685165 Z M109.567618,79.9402559 L98.6308566,85.4479339 L93.9385021,88.9637301 L99.3294481,86.65793 L109.567618,79.9402559 Z M111.772851,85.2641592 L99.7832586,87.7535255 L94.3408373,89.9350531 L100.144876,89.1031007 L111.772851,85.2641592 Z M112.525015,90.9774111 L100.299663,90.2788196 L94.4780663,90.9774111 L100.299663,91.6760027 L112.525015,90.9774111 Z M111.772851,96.6906631 L100.144876,92.8517215 L94.3408373,92.0197691 L99.7832586,94.2012967 L111.772851,96.6906631 Z M109.567618,102.014566 L99.3294481,95.2968923 L93.9385021,92.9910922 L98.6308566,96.5068883 L109.567618,102.014566 Z M106.059599,106.586306 L97.9089483,97.4476975 L93.2984793,93.8251862 L96.9209906,98.4356552 L106.059599,106.586306 Z M101.487859,110.094325 L95.9801814,99.1575635 L92.4643853,94.465209 L94.7701854,99.856155 L101.487859,110.094325 Z M96.1639562,112.299558 L93.6745898,100.309966 L91.4930622,94.8675442 L92.3250146,100.671583 L96.1639562,112.299558 Z M81.8320012,112.387436 C82.3536871,112.59821 82.9474637,112.346167 83.1582385,111.824481 C83.3690132,111.302795 83.11697,110.709019 82.5952842,110.498244 C82.0735983,110.287469 81.4798217,110.539512 81.2690469,111.061198 C81.0582722,111.582884 81.3103154,112.176661 81.8320012,112.387436 Z M76.5843543,109.427222 C77.0337117,109.765837 77.6724894,109.676063 78.0111044,109.226706 C78.3497194,108.777348 78.2599451,108.13857 77.8105878,107.799955 C77.3612305,107.46134 76.7224527,107.551115 76.3838377,108.000472 C76.0452227,108.449829 76.134997,109.088607 76.5843543,109.427222 Z M72.2816763,105.209685 C72.6280821,105.653064 73.2683293,105.731676 73.7117086,105.385271 C74.1550878,105.038865 74.2337003,104.398618 73.8872944,103.955238 C73.5408886,103.511859 72.9006414,103.433247 72.4572622,103.779652 C72.0138829,104.126058 71.9352705,104.766305 72.2816763,105.209685 Z M69.2171875,100.022241 C69.4370348,100.540169 70.0351197,100.781811 70.5530476,100.561964 C71.0709755,100.342116 71.3126175,99.7440315 71.0927701,99.2261036 C70.8729228,98.7081758 70.2748379,98.4665338 69.75691,98.6863811 C69.2389821,98.9062284 68.9973401,99.5043134 69.2171875,100.022241 Z M67.5997277,94.2184076 C67.6780343,94.7755882 68.1931984,95.1637922 68.750379,95.0854856 C69.3075596,95.0071789 69.6957636,94.4920148 69.617457,93.9348342 C69.5391504,93.3776536 69.0239863,92.9894496 68.4668057,93.0677563 C67.9096251,93.1460629 67.5214211,93.661227 67.5997277,94.2184076 Z M67.5395242,88.1937054 C67.4709537,88.7521678 67.8680894,89.2604783 68.4265518,89.3290489 C68.9850141,89.3976194 69.4933247,89.0004837 69.5618953,88.4420213 C69.6304658,87.883559 69.2333301,87.3752484 68.6748677,87.3066778 C68.1164054,87.2381073 67.6080948,87.635243 67.5395242,88.1937054 Z M69.0406798,82.3587081 C68.8299051,82.880394 69.0819483,83.4741706 69.6036341,83.6849453 C70.12532,83.8957201 70.7190966,83.6436769 70.9298713,83.121991 C71.1406461,82.6003052 70.8886029,82.0065286 70.366917,81.7957538 C69.8452312,81.5849791 69.2514546,81.8370223 69.0406798,82.3587081 Z M72.0008932,77.1110612 C71.6622782,77.5604186 71.7520525,78.1991963 72.2014098,78.5378113 C72.6507672,78.8764263 73.2895449,78.786652 73.6281599,78.3372947 C73.9667749,77.8879373 73.8770006,77.2491596 73.4276433,76.9105446 C72.9782859,76.5719296 72.3395082,76.6617039 72.0008932,77.1110612 Z M76.2184307,72.8083832 C75.7750515,73.154789 75.696439,73.7950362 76.0428448,74.2384155 C76.3892506,74.6817947 77.0294978,74.7604072 77.4728771,74.4140013 C77.9162563,74.0675955 77.9948688,73.4273483 77.648463,72.9839691 C77.3020571,72.5405898 76.6618099,72.4619774 76.2184307,72.8083832 Z M81.4058741,69.7438943 C80.8879462,69.9637417 80.6463042,70.5618266 80.8661516,71.0797545 C81.0859989,71.5976824 81.6840838,71.8393243 82.2020117,71.619477 C82.7199396,71.3996297 82.9615816,70.8015448 82.7417342,70.2836169 C82.5218869,69.765689 81.923802,69.524047 81.4058741,69.7438943 Z M87.2097078,68.1264346 C86.6525272,68.2047412 86.2643232,68.7199053 86.3426298,69.2770859 C86.4209364,69.8342665 86.9361005,70.2224705 87.4932811,70.1441639 C88.0504617,70.0658573 88.4386657,69.5506932 88.3603591,68.9935126 C88.2820525,68.436332 87.7668884,68.048128 87.2097078,68.1264346 Z M93.23441,68.0662311 C92.6759476,67.9976606 92.167637,68.3947963 92.0990665,68.9532587 C92.0304959,69.511721 92.4276317,70.0200316 92.986094,70.0886022 C93.5445564,70.1571727 94.052867,69.760037 94.1214375,69.2015746 C94.1900081,68.6431122 93.7928723,68.1348017 93.23441,68.0662311 Z M99.0694072,69.5673867 C98.5477214,69.3566119 97.9539448,69.6086552 97.74317,70.130341 C97.5323952,70.6520269 97.7844384,71.2458035 98.3061243,71.4565782 C98.8278102,71.667353 99.4215867,71.4153098 99.6323615,70.8936239 C99.8431363,70.3719381 99.5910931,69.7781615 99.0694072,69.5673867 Z M104.317054,72.5276001 C103.867697,72.1889851 103.228919,72.2787594 102.890304,72.7281167 C102.551689,73.1774741 102.641463,73.8162518 103.090821,74.1548668 C103.540178,74.4934818 104.178956,74.4037075 104.517571,73.9543502 C104.856186,73.5049928 104.766411,72.8662151 104.317054,72.5276001 Z M108.619732,76.7451376 C108.273326,76.3017584 107.633079,76.2231459 107.1897,76.5695517 C106.746321,76.9159575 106.667708,77.5562047 107.014114,77.999584 C107.36052,78.4429632 108.000767,78.5215757 108.444146,78.1751699 C108.887526,77.828764 108.966138,77.1885168 108.619732,76.7451376 Z M111.684221,81.932581 C111.464374,81.4146531 110.866289,81.1730111 110.348361,81.3928585 C109.830433,81.6127058 109.588791,82.2107907 109.808638,82.7287186 C110.028486,83.2466465 110.626571,83.4882885 111.144498,83.2684411 C111.662426,83.0485938 111.904068,82.4505089 111.684221,81.932581 Z M113.301681,87.7364147 C113.223374,87.1792341 112.70821,86.7910301 112.151029,86.8693367 C111.593849,86.9476433 111.205645,87.4628074 111.283951,88.019988 C111.362258,88.5771686 111.877422,88.9653726 112.434603,88.887066 C112.991783,88.8087594 113.379987,88.2935952 113.301681,87.7364147 Z M113.361884,93.7611169 C113.430455,93.2026545 113.033319,92.6943439 112.474857,92.6257734 C111.916394,92.5572028 111.408084,92.9543386 111.339513,93.5128009 C111.270943,94.0712633 111.668078,94.5795738 112.226541,94.6481444 C112.785003,94.716715 113.293314,94.3195792 113.361884,93.7611169 Z M111.860729,99.5961141 C112.071503,99.0744283 111.81946,98.4806517 111.297774,98.2698769 C110.776088,98.0591021 110.182312,98.3111453 109.971537,98.8328312 C109.760762,99.3545171 110.012806,99.9482936 110.534491,100.159068 C111.056177,100.369843 111.649954,100.1178 111.860729,99.5961141 Z M108.900515,104.843761 C109.23913,104.394404 109.149356,103.755626 108.699999,103.417011 C108.250641,103.078396 107.611864,103.16817 107.273249,103.617528 C106.934634,104.066885 107.024408,104.705663 107.473765,105.044278 C107.923123,105.382893 108.5619,105.293118 108.900515,104.843761 Z M104.682978,109.146439 C105.126357,108.800033 105.204969,108.159786 104.858564,107.716407 C104.512158,107.273028 103.871911,107.194415 103.428531,107.540821 C102.985152,107.887227 102.90654,108.527474 103.252945,108.970853 C103.599351,109.414232 104.239599,109.492845 104.682978,109.146439 Z M99.4955343,112.210928 C100.013462,111.991081 100.255104,111.392996 100.035257,110.875068 C99.8154095,110.35714 99.2173246,110.115498 98.6993967,110.335345 C98.1814689,110.555193 97.9398269,111.153277 98.1596742,111.671205 C98.3795215,112.189133 98.9776065,112.430775 99.4955343,112.210928 Z M93.6917007,113.828388 C94.2488813,113.750081 94.6370853,113.234917 94.5587787,112.677736 C94.480472,112.120556 93.9653079,111.732352 93.4081273,111.810658 C92.8509467,111.888965 92.4627427,112.404129 92.5410494,112.96131 C92.619356,113.51849 93.1345201,113.906694 93.6917007,113.828388 Z M93.6917007,113.828388" fill="#346DA6"/>
  </g>
</svg>
